<?xml version="1.0" standalone="no"?>
<!DOCTYPE svg PUBLIC "-//W3C//DTD SVG 20010904//EN"
 "http://www.w3.org/TR/2001/REC-SVG-20010904/DTD/svg10.dtd">
<svg version="1.0" xmlns="http://www.w3.org/2000/svg"
 width="1280.000000pt" height="1255.000000pt" viewBox="0 0 1280.000000 1255.000000"
 preserveAspectRatio="xMidYMid meet">
<g transform="translate(0.000000,1255.000000) scale(0.100000,-0.100000)"
fill="#000000" stroke="none">
<path d="M4510 12520 c-147 -30 -222 -56 -345 -118 -235 -119 -433 -322 -571
-586 -30 -58 -59 -108 -64 -111 -5 -3 -26 15 -47 41 -56 68 -159 145 -270 202
-378 192 -882 216 -1208 57 -178 -87 -291 -217 -335 -390 -7 -27 -16 -53 -19
-57 -4 -4 -42 4 -85 17 -250 80 -553 3 -750 -189 -65 -64 -100 -115 -135 -203
l-28 -68 -94 0 c-86 0 -100 -3 -161 -33 -166 -81 -302 -313 -357 -607 -45
-235 -50 -300 -31 -392 5 -26 17 -82 25 -124 22 -108 74 -209 137 -270 l51
-49 -20 -38 c-86 -156 -143 -442 -143 -727 0 -327 56 -537 173 -648 l51 -48
-21 -67 c-38 -120 -47 -183 -46 -342 1 -295 70 -537 191 -662 l35 -37 -12 -58
c-19 -90 -25 -307 -12 -434 29 -277 104 -526 222 -736 61 -108 209 -257 301
-301 85 -41 195 -65 270 -59 37 3 61 1 67 -6 5 -7 14 -102 20 -212 7 -110 13
-216 15 -235 5 -62 -14 -259 -34 -346 -11 -47 -20 -102 -20 -123 0 -20 -18
-109 -39 -197 -42 -166 -65 -311 -55 -348 3 -12 -4 -66 -15 -121 -25 -115 -26
-224 -5 -280 31 -79 31 -78 -39 -128 -214 -153 -281 -378 -176 -593 58 -118
145 -195 239 -210 23 -4 44 -13 47 -21 3 -7 -17 -120 -45 -251 -44 -206 -75
-363 -96 -493 -6 -31 -15 -42 -65 -73 -112 -68 -203 -188 -254 -331 -78 -221
-73 -411 18 -604 43 -90 152 -203 235 -244 341 -166 599 -245 1194 -367 630
-128 1434 -233 2086 -270 102 -6 240 -15 308 -20 156 -13 352 -13 461 0 47 5
185 14 306 20 950 46 2277 290 3028 556 252 89 390 157 556 274 l105 73 44
-12 c43 -11 48 -10 136 33 118 58 222 99 606 239 600 219 753 286 946 416 396
266 755 658 972 1061 66 123 146 319 177 434 76 281 102 689 70 1091 -73 910
-370 1700 -834 2220 -210 235 -457 373 -772 431 -130 24 -433 25 -581 1 -257
-41 -501 -116 -683 -211 -123 -64 -336 -194 -437 -267 -31 -23 -61 -38 -67
-34 -6 3 -11 28 -11 55 0 64 -34 261 -66 380 -20 76 -54 171 -110 305 -3 6 12
29 31 50 20 22 49 67 65 100 49 104 61 166 67 350 6 190 -9 326 -53 497 -14
54 -23 102 -19 108 3 5 34 10 68 10 165 1 322 129 431 355 59 121 81 194 92
300 9 95 12 98 86 73 54 -19 68 -20 122 -10 186 35 338 186 402 397 35 121 44
309 20 440 -23 122 -76 278 -140 410 -29 61 -62 131 -74 157 -14 30 -37 59
-63 78 -97 70 -289 98 -453 65 -99 -20 -106 -17 -106 43 0 52 -37 220 -70 322
-90 276 -257 513 -435 617 -75 44 -158 73 -211 73 -30 0 -34 4 -50 53 -23 70
-114 160 -205 204 -232 112 -544 142 -794 78 -71 -18 -196 -76 -243 -111 -18
-14 -37 -24 -43 -22 -6 2 -21 29 -34 61 -41 103 -88 170 -185 267 -188 189
-479 341 -800 420 -290 70 -506 64 -632 -20 l-46 -31 -51 31 c-65 40 -139 66
-259 90 -127 26 -189 24 -352 -10z m5560 -6828 c119 -28 201 -57 305 -108 162
-79 252 -169 336 -336 184 -365 288 -863 289 -1375 0 -340 -36 -552 -124 -738
-66 -138 -273 -401 -448 -571 -154 -149 -266 -221 -458 -297 -131 -51 -545
-193 -666 -227 l-80 -23 -40 26 c-70 46 -121 60 -230 61 -100 1 -103 0 -140
-30 -22 -17 -59 -43 -83 -58 -37 -24 -46 -26 -57 -14 -17 17 -154 556 -222
878 -86 403 -169 868 -211 1190 -21 164 -58 766 -47 777 3 4 16 -3 29 -15 15
-14 36 -22 59 -22 41 0 41 0 313 225 494 407 827 622 1038 671 87 19 324 12
437 -14z"/>
</g>
</svg>
